<?xml version="1.0" encoding="utf-8"?>
<!-- Generator: Adobe Illustrator 14.0.0, SVG Export Plug-In . SVG Version: 6.00 Build 43363)  -->
<!DOCTYPE svg PUBLIC "-//W3C//DTD SVG 1.0//EN" "http://www.w3.org/TR/2001/REC-SVG-20010904/DTD/svg10.dtd">
<svg version="1.0" id="Layer_1" xmlns="http://www.w3.org/2000/svg" xmlns:xlink="http://www.w3.org/1999/xlink" x="0px" y="0px"
	 width="81.59px" height="99.992px" viewBox="0 0 81.59 99.992" enable-background="new 0 0 81.59 99.992" xml:space="preserve">
<path d="M68.848,68.51"/>
<path d="M12.687,68.51"/>
<g>
	<path fill="#ffffff" d="M77.619,14.775c-1.098-5.528-4.622-7.731-9.931-9.93C62.499,2.668,50.02,0.079,40.794,0
		c-9.243,0.079-21.722,2.668-26.948,4.846c-5.271,2.199-8.795,4.402-9.875,9.93L0,45.284v42.091h6.84v6.564
		c-0.027,8.071,11.745,8.071,11.75,0v-6.564h21.737h0.054H63v6.564c-0.014,8.071,11.759,8.071,11.75,0v-6.564h6.84V45.284
		L77.619,14.775z M23.996,7.715h16.385h17.212c3.286-0.009,3.286,4.949,0,4.965H40.327H23.996
		C20.694,12.664,20.694,7.706,23.996,7.715z M12.687,74.191c-3.101-0.015-5.631-2.542-5.627-5.682
		c-0.004-3.099,2.526-5.627,5.627-5.627c3.136,0,5.665,2.528,5.683,5.627C18.352,71.649,15.823,74.177,12.687,74.191z
		 M40.381,48.482H10.426c-2.925,0.028-3.54-2.081-3.253-4.192l3.088-22.177c0.425-2.67,1.336-4.443,4.854-4.468h25.213h26.149
		c3.498,0.025,4.412,1.797,4.854,4.468l3.09,22.177c0.266,2.112-0.348,4.22-3.256,4.192H40.381z M68.848,74.191
		c-3.1-0.015-5.628-2.542-5.628-5.682c0-3.099,2.528-5.627,5.628-5.627c3.137,0,5.667,2.528,5.681,5.627
		C74.515,71.649,71.985,74.177,68.848,74.191z"/>
	<path fill="#ffffff" d="M40.381-0.007c0.135,0,0.277,0.006,0.414,0.007c0.137-0.001,0.278-0.007,0.414-0.007H40.381z"/>
</g>
</svg>
