<?xml version="1.0" encoding="UTF-8"?>
<svg width="20px" height="20px" viewBox="0 0 20 20" version="1.1" xmlns="http://www.w3.org/2000/svg" xmlns:xlink="http://www.w3.org/1999/xlink">
    <!-- Generator: Sketch 46.1 (44463) - http://www.bohemiancoding.com/sketch -->
    <title>Shape</title>
    <desc>Created with Sketch.</desc>
    <defs></defs>
    <g id="Page-1" stroke="none" stroke-width="1" fill="none" fill-rule="evenodd">
        <g id="PP5-Copy-70" transform="translate(-1265.000000, -106.000000)" fill-rule="nonzero" fill="#DF2A2A">
            <path d="M1275,106 C1269.49351,106 1265,110.493506 1265,116 C1265,121.506494 1269.49351,126 1275,126 C1280.50649,126 1285,121.506494 1285,116 C1285,110.493506 1280.50649,106 1275,106 Z M1275.51948,120.155844 C1275.51948,120.519481 1275.23377,120.805195 1274.87013,120.805195 C1274.50649,120.805195 1274.22078,120.519481 1274.22078,120.155844 L1274.22078,119.376623 C1274.22078,119.012987 1274.50649,118.727273 1274.87013,118.727273 C1275.23377,118.727273 1275.51948,119.012987 1275.51948,119.376623 L1275.51948,120.155844 Z M1275.51948,117.038961 C1275.51948,117.402597 1275.23377,117.688312 1274.87013,117.688312 C1274.50649,117.688312 1274.22078,117.402597 1274.22078,117.038961 L1274.22078,112.103896 C1274.22078,111.74026 1274.50649,111.454545 1274.87013,111.454545 C1275.23377,111.454545 1275.51948,111.74026 1275.51948,112.103896 L1275.51948,117.038961 Z" id="Shape"></path>
        </g>
    </g>
</svg>