<?xml version="1.0" encoding="UTF-8"?>
<svg width="7px" height="15px" viewBox="0 0 7 15" version="1.1" xmlns="http://www.w3.org/2000/svg" xmlns:xlink="http://www.w3.org/1999/xlink">
    <!-- Generator: Sketch 46.1 (44463) - http://www.bohemiancoding.com/sketch -->
    <title>Path Copy 2</title>
    <desc>Created with Sketch.</desc>
    <defs></defs>
    <g id="Page-1" stroke="none" stroke-width="1" fill="none" fill-rule="evenodd">
        <g id="PP5-Copy-14" transform="translate(-1106.000000, -811.000000)" fill="#FFFFFF">
            <g id="Group-11" transform="translate(966.000000, 811.000000)">
                <g id="Group-10" transform="translate(140.000000, 0.000000)">
                    <path d="M4.6097561,0 C4.13550136,0 3.6802168,0.0570342205 3.14905149,0.266159696 C2.06775068,0.703422053 1.51761518,1.73003802 1.51761518,3.3269962 L1.51761518,4.88593156 L0,4.88593156 L0,7.4904943 L1.51761518,7.4904943 L1.51761518,15 L4.6097561,15 L4.6097561,7.4904943 L6.71544715,7.4904943 L7,4.88593156 L4.6097561,4.88593156 L4.6097561,3.70722433 C4.6097561,3.3460076 4.64769648,3.07984791 4.74254743,2.92775665 C4.87533875,2.69961977 5.14092141,2.58555133 5.55826558,2.58555133 L6.96205962,2.58555133 L6.96205962,0 L4.6097561,0 Z" id="Path-Copy-2"></path>
                </g>
            </g>
        </g>
    </g>
</svg>