<?xml version="1.0" encoding="UTF-8"?>
<svg width="17px" height="15px" viewBox="0 0 17 15" version="1.1" xmlns="http://www.w3.org/2000/svg" xmlns:xlink="http://www.w3.org/1999/xlink">
    <!-- Generator: Sketch 46.1 (44463) - http://www.bohemiancoding.com/sketch -->
    <title>Path Copy 3</title>
    <desc>Created with Sketch.</desc>
    <defs></defs>
    <g id="Page-1" stroke="none" stroke-width="1" fill="none" fill-rule="evenodd">
        <g id="PP5-Copy-14" transform="translate(-1121.000000, -811.000000)" fill="#FFFFFF">
            <g id="Group-11" transform="translate(966.000000, 811.000000)">
                <g id="Group-10" transform="translate(140.000000, 0.000000)">
                    <path d="M18.652051,3.54608056 C21.338917,4.93081205 23.6096286,4.8509237 23.6096286,4.8509237 C23.6096286,4.8509237 22.7487879,1.78853651 25.4095681,0.430434691 C28.070348,-0.927667353 29.901347,1.36204873 29.901347,1.36204873 C29.901347,1.36204873 30.3653984,1.23200859 30.7111623,1.10196845 C31.0569261,0.971928313 31.5573737,0.739713772 31.5573737,0.739713772 L30.7374655,2.23368832 L32,2.09707176 C32,2.09707176 31.8443892,2.32933255 31.3391019,2.80240294 C30.8338146,3.27547332 30.6255609,3.51986719 30.6255609,3.51986719 C30.6255609,3.51986719 30.8060631,7.20605898 28.9038798,10.0440829 C27.0016961,12.8821067 24.5439637,14.5854148 20.9737119,14.943902 C17.4034602,15.3023893 15.0782582,13.8254651 15.0782582,13.8254651 C15.0782582,13.8254651 16.6397058,13.7344962 17.6346939,13.3461349 C18.6296821,12.9577738 20.0606992,11.934774 20.0606992,11.934774 C20.0606992,11.934774 18.0259851,11.2956671 17.2955749,10.5766719 C16.5651647,9.85767673 16.3825622,9.4316055 16.3825622,9.4316055 L18.3911902,9.40497605 C18.3911902,9.40497605 16.2782178,8.25990962 15.678238,7.35450826 C15.0782582,6.44910692 15,5.57033498 15,5.57033498 L16.5442514,6.20692181 C16.5442514,6.20692181 15.2608609,4.42526854 15.0782582,3.04053706 C14.8956557,1.65580556 15.3130329,0.91018091 15.3130329,0.91018091 C15.3130329,0.91018091 15.9651849,2.16134905 18.652051,3.54608056 Z" id="Path-Copy-3"></path>
                </g>
            </g>
        </g>
    </g>
</svg>