<?xml version="1.0" encoding="UTF-8"?>
<svg width="300px" height="392px" viewBox="0 0 300 392" version="1.1" xmlns="http://www.w3.org/2000/svg" xmlns:xlink="http://www.w3.org/1999/xlink">
    <!-- Generator: Sketch 39.1 (31720) - http://www.bohemiancoding.com/sketch -->
    <title>consultas-icono</title>
    <desc>Created with Sketch.</desc>
    <defs>
        <rect id="path-1" x="54.5454545" y="277.919" width="36.3636364" height="36.3636364"></rect>
        <mask id="mask-2" maskContentUnits="userSpaceOnUse" maskUnits="objectBoundingBox" x="-7" y="-7" width="50.3636364" height="50.3636364">
            <rect x="47.5454545" y="270.919" width="50.3636364" height="50.3636364" fill="white"></rect>
            <use xlink:href="#path-1" fill="black"></use>
        </mask>
        <rect id="path-3" x="54.5454545" y="91.5553636" width="36.3636364" height="36.3636364"></rect>
        <mask id="mask-4" maskContentUnits="userSpaceOnUse" maskUnits="objectBoundingBox" x="-7" y="-7" width="50.3636364" height="50.3636364">
            <rect x="47.5454545" y="84.5553636" width="50.3636364" height="50.3636364" fill="white"></rect>
            <use xlink:href="#path-3" fill="black"></use>
        </mask>
    </defs>
    <g id="Page-1" stroke="none" stroke-width="1" fill="none" fill-rule="evenodd">
        <g id="consultas-icono" transform="translate(0.000000, -1.000000)">
            <g id="Group" transform="translate(0.000000, 0.899182)">
                <path d="M0,387.01 C0.000227272727,389.39 2.16554545,391.555 4.54545455,391.555455 L295.454545,391.555455 C297.834455,391.555 299.999773,389.39 300,387.01 L300,5.19172727 C299.844856,1.68519469 296.606739,0.646272727 295.454545,0.646272727 L4.54545455,0.646272727 C1.52781818,0.646272727 0,3.28613636 0,5.19172727 L0,387.01 Z M9.09090909,9.73718182 L290.909091,9.73718182 L290.909091,382.464545 L9.09090909,382.464545 L9.09090909,9.73718182 Z M145.454545,114.282636 C145.454545,116.425409 147.609591,118.828091 150,118.828091 L259.090909,118.828091 C261.492318,118.864455 263.701091,116.684318 263.701091,114.282636 C263.701091,111.881 261.492318,109.703227 259.090909,109.737182 L150,109.737182 C146.645,109.737182 145.454545,112.139909 145.454545,114.282636 L145.454545,114.282636 Z M122.585227,159.595136 C121.412818,159.6415 120.266,160.162727 119.460227,161.015591 L68.1818182,212.294091 L44.1761364,188.288182 C42.5065455,186.561364 39.4112727,186.518182 37.6941818,188.197273 C35.9771364,189.877273 35.9522273,192.972727 37.6419091,194.679545 L64.9146364,221.952273 C66.6045,223.699091 69.7589091,223.699091 71.4487273,221.952273 L125.994182,167.407045 C128.647,164.851318 126.262818,159.387864 122.585091,159.594545 L122.585227,159.595136 Z M145.454545,205.191818 C145.454545,207.334545 147.609591,209.737273 150,209.737273 L259.090909,209.737273 C261.492318,209.782727 263.701091,207.593182 263.701091,205.191818 C263.701091,202.79 261.492318,200.612273 259.090909,200.646364 L150,200.646364 C146.53,200.646364 145.454545,203.049091 145.454545,205.191818 L145.454545,205.191818 Z M145.454545,296.100909 C145.454545,298.243636 147.609591,300.646364 150,300.646364 L259.090909,300.646364 C261.492318,300.691818 263.701091,298.502727 263.701091,296.100909 C263.701091,293.699091 261.492318,291.521364 259.090909,291.555455 L150,291.555455 C146.53,291.555455 145.454545,293.958182 145.454545,296.100909 L145.454545,296.100909 Z" id="Shape" fill="#FFFFFF"></path>
                <use id="Rectangle" stroke="#FFFFFF" mask="url(#mask-2)" stroke-width="14" stroke-linecap="round" stroke-linejoin="round" xlink:href="#path-1"></use>
                <use id="Rectangle" stroke="#FFFFFF" mask="url(#mask-4)" stroke-width="14" stroke-linecap="round" stroke-linejoin="round" xlink:href="#path-3"></use>
            </g>
        </g>
    </g>
</svg>
