<svg xmlns="http://www.w3.org/2000/svg" xmlns:xlink="http://www.w3.org/1999/xlink" version="1.1" x="0px" y="0px" viewBox="0 0 100 125" style="enable-background:new 0 0 100 100;" xml:space="preserve"><style type="text/css">
	.st0{fill:none;stroke:#FFF;stroke-miterlimit:10;}
	.st1{fill:none;stroke:#FFF;stroke-width:2;stroke-linecap:round;stroke-linejoin:round;stroke-miterlimit:10;}
	.st2{fill:none;stroke:#FFF;stroke-width:2;stroke-linecap:round;stroke-linejoin:round;}
	.st3{fill:none;stroke:#FFF;stroke-width:2;stroke-linecap:round;stroke-linejoin:round;stroke-dasharray:0.9868,0.9868;}

		.st4{fill:none;stroke:#FFF;stroke-width:2;stroke-linecap:round;stroke-linejoin:round;stroke-dasharray:0.9868,1.9736,0.9868,0.9868;}
	.st5{fill:none;stroke:#FFF;stroke-width:2;stroke-linecap:round;stroke-linejoin:round;stroke-dasharray:1,2,1,1;}
	.st6{fill:none;stroke:#FFF;stroke-width:2;stroke-linecap:round;stroke-linejoin:round;stroke-dasharray:1.0029,1.0029;}

		.st7{fill:none;stroke:#FFF;stroke-width:2;stroke-linecap:round;stroke-linejoin:round;stroke-dasharray:1.0029,2.0059,1.0029,1.0029;}
	.st8{stroke:#FFF;stroke-width:2;stroke-linecap:round;stroke-linejoin:round;stroke-miterlimit:10;}
</style><g><path d="M50,30.1C50,30.1,50,30.1,50,30.1C50,30.1,50,30.1,50,30.1c-0.2,0-0.3,0-0.4,0c-13.9,0-25.2,11.3-25.2,25.2   c0,13.9,11.3,25.2,25.2,25.2c0.1,0,0.2,0,0.3,0c0,0,0,0,0,0c0,0,0,0,0,0c13.7-0.2,24.9-11.4,24.9-25.2C74.9,41.6,63.8,30.3,50,30.1   z M51,78.6v-2.6c0-0.6-0.4-1-1-1s-1,0.4-1,1v2.7c-12.2-0.4-22-10.1-22.5-22.2h2.7c0.6,0,1-0.4,1-1s-0.4-1-1-1h-2.7   C27,42.2,36.8,32.5,49,32.1v2.7c0,0.6,0.4,1,1,1s1-0.4,1-1v-2.6c11.9,0.7,21.4,10.3,21.9,22.2h-2.7c-0.6,0-1,0.4-1,1s0.4,1,1,1h2.7   C72.4,68.3,62.9,77.9,51,78.6z"/><path d="M53.5,25.7c0.6-0.7,0.9-1.7,0.9-2.7c0-2.5-2-4.5-4.5-4.5s-4.5,2-4.5,4.5c0,1,0.3,1.9,0.9,2.7   c-14.8,1.8-26.3,14.4-26.3,29.7c0,16.5,13.4,29.9,29.9,29.9s29.9-13.4,29.9-29.9C79.9,40.1,68.4,27.5,53.5,25.7z M47.5,23   c0-1.4,1.1-2.5,2.5-2.5s2.5,1.1,2.5,2.5s-1.1,2.5-2.5,2.5S47.5,24.4,47.5,23z M50,83.2c-15.4,0-27.9-12.5-27.9-27.9   S34.6,27.5,50,27.5S77.9,40,77.9,55.4S65.4,83.2,50,83.2z"/><path d="M62.1,41.3L45.4,51c0,0,0,0,0,0c-0.1,0-0.1,0.1-0.2,0.2c-0.1,0.1-0.1,0.1-0.2,0.2c0,0,0,0,0,0l-9.8,16.7   c-0.2,0.4-0.2,0.9,0.2,1.2c0.2,0.2,0.4,0.3,0.7,0.3c0.2,0,0.3,0,0.5-0.1l16.7-9.8c0,0,0,0,0,0c0.1,0,0.1-0.1,0.2-0.2   c0.1-0.1,0.1-0.1,0.2-0.2c0,0,0,0,0,0l9.8-16.7c0.2-0.4,0.2-0.9-0.2-1.2C63,41.1,62.5,41,62.1,41.3z M52.6,57.2l-5.1-5.1l12.3-7.2   L52.6,57.2z"/></g></svg>
