<svg xmlns="http://www.w3.org/2000/svg" xmlns:xlink="http://www.w3.org/1999/xlink" version="1.1" x="0px" y="0px" viewBox="0 0 100 125" enable-background="new 0 0 100 100" xml:space="preserve"><g><path fill="none" stroke="#FFF" stroke-width="3" stroke-linecap="round" stroke-linejoin="round" stroke-miterlimit="10" d="   M59.059,13.957l-2.168,8.085 M73.762,22.763l-5.916,5.919 M41.562,14.232l2.165,8.083 M32.158,29.175l-5.92-5.917 M41.797,79.137   h17.232 M41.797,86.043h17.232 M51.389,29.106c-0.32-0.017-0.645-0.028-0.972-0.028c0,0-0.632,0.007-0.92,0.023   c-9.354,0.479-16.79,8.211-16.79,17.685c0,5.143,3.013,10.021,6.54,13.735c0.661,0.624,1.542,1.595,1.997,2.695   c0.426,1.029,0.535,2.354,0.53,3.828v1.396v3.789h3.789h4.804h0.05h4.808h3.784v-3.788v-1.396   c-0.007-1.475,0.107-2.799,0.532-3.828c0.456-1.103,1.335-2.072,1.997-2.696c3.526-3.714,6.539-8.594,6.539-13.735   C68.077,37.345,60.695,29.638,51.389,29.106z"/></g></svg>
