<svg id="Layer_1" data-name="Layer 1" xmlns="http://www.w3.org/2000/svg" viewBox="0 0 53.67 49.83"><defs><style>.cls-1{fill:#fff;}</style></defs><title>b</title><path class="cls-1" d="M37.79,38.9a15,15,0,0,1-10.45,4.28,14.79,14.79,0,0,1-10.53-4.36.75.75,0,1,0-1.06,1.06,16.28,16.28,0,0,0,11.59,4.8A16.46,16.46,0,0,0,38.84,40a.75.75,0,1,0-1-1.08Z"/><path class="cls-1" d="M11.31,34.1A2.59,2.59,0,0,0,10,29.31a2.58,2.58,0,0,0-2.57,2.57,2.52,2.52,0,0,0,1.32,2.27A3.49,3.49,0,0,0,6.62,37.3a.75.75,0,0,0,.75.75h5.38a.75.75,0,0,0,.75-.75A3.44,3.44,0,0,0,11.31,34.1ZM10,30.81A1.07,1.07,0,1,1,10,33a1,1,0,0,1-1.07-1.07A1.08,1.08,0,0,1,10,30.81ZM8.29,36.55a2,2,0,0,1,1.77-1.19,1.94,1.94,0,0,1,1.79,1.19Z"/><path class="cls-1" d="M34,11.85a15,15,0,0,1,9.3,13.73v.52a.75.75,0,1,0,1.5,0v-.52A16.53,16.53,0,0,0,34.61,10.46.75.75,0,0,0,34,11.85Z"/><path class="cls-1" d="M46,34.11a2.57,2.57,0,1,0-3.86-2.23,2.52,2.52,0,0,0,1.26,2.24,3.44,3.44,0,0,0-2.13,3.18.75.75,0,0,0,.75.75H47.4a.75.75,0,0,0,.75-.75A3.44,3.44,0,0,0,46,34.11Zm-1.29-3.3a1.07,1.07,0,1,1,0,2.15,1,1,0,0,1-1.07-1.07A1.08,1.08,0,0,1,44.72,30.81Zm-1.79,5.74a1.94,1.94,0,0,1,3.57,0Z"/><path class="cls-1" d="M23.9,11.38a.75.75,0,0,0,.75.75H30a.75.75,0,0,0,.75-.75,3.44,3.44,0,0,0-2.23-3.22,2.52,2.52,0,0,0,1.37-2.29,2.57,2.57,0,0,0-5.15,0,2.52,2.52,0,0,0,1.37,2.29A3.44,3.44,0,0,0,23.9,11.38ZM27.34,4.8a1.08,1.08,0,0,1,1.07,1.07,1.07,1.07,0,0,1-2.15,0A1.08,1.08,0,0,1,27.34,4.8Zm0,4.65a1.94,1.94,0,0,1,1.79,1.19H25.55A1.94,1.94,0,0,1,27.34,9.44Z"/><path class="cls-1" d="M10.35,26.73A.75.75,0,0,0,11.1,26v-.52a15,15,0,0,1,9.3-13.73.75.75,0,0,0-.57-1.39A16.53,16.53,0,0,0,9.6,25.46V26A.75.75,0,0,0,10.35,26.73Z"/><path class="cls-1" d="M20.75,33.83a.75.75,0,0,0,.75.75h5.33a.75.75,0,0,0,0-1.5H22.25V19.25h10.5v8.83a.75.75,0,0,0,1.5,0V18.5a.75.75,0,0,0-.75-.75h-12a.75.75,0,0,0-.75.75Z"/><path class="cls-1" d="M24.33,24.08h6.5a.75.75,0,0,0,0-1.5h-6.5a.75.75,0,1,0,0,1.5Z"/><path class="cls-1" d="M24.33,26.75h6.5a.75.75,0,0,0,0-1.5h-6.5a.75.75,0,0,0,0,1.5Z"/><path class="cls-1" d="M24.33,29.42h6.5a.75.75,0,0,0,0-1.5h-6.5a.75.75,0,0,0,0,1.5Z"/><path class="cls-1" d="M30.85,35a.75.75,0,0,0,.54.23h0A.75.75,0,0,0,32,35l3.67-4.83a.75.75,0,1,0-1.2-.91l-3.13,4.13-1.6-1.69a.75.75,0,1,0-1.09,1Z"/></svg>