<svg xmlns="http://www.w3.org/2000/svg" xmlns:xlink="http://www.w3.org/1999/xlink" version="1.1" id="Your_Icon" x="0px" y="0px" width="100px" height="100px" viewBox="0 0 100 100" enable-background="new 0 0 100 100" xml:space="preserve">
<g>
	<path fill="#ffffff" d="M62.074,83c0.016-2.749-0.137-7.146-0.137-9.074c-0.964-3.079-4.159-3.489-6.828-4.729c-2.931-1.36-6.18-2.942-9.104-4.264   c-0.835-0.25-1.67-0.507-2.504-0.757c-0.995-0.755-1.972-3.274-2.504-4.521l-0.706-0.204l-2.233,0.129   c1.385-1.242,3.422-2.351,4.1-3.627l1.219-6.955l0.512,0.021c0.789,0.03,1.625-0.234,1.647-1.569l0.111-6.852   c0.02-0.491-0.511-1.065-1.112-1.468c-0.111-0.048-0.217-0.096-0.322-0.143c0.184-2.237,0.187-4.125,0.036-5.715   c0.03-0.29,0.052-0.6,0.061-0.938c0.08-3.053-2.961-8.947-10.544-9.684c-4.841-0.471-9.651,2.178-10.062,5.107   c-0.276,0.001-0.603,0.052-0.996,0.164c-1.188,0.338-2.338,2.121-2.517,5.225c-0.196,3.421-0.032,5.049,0.335,5.829   c-0.085,0.04-0.17,0.081-0.251,0.117c-0.666,0.402-1.298,1.037-1.277,1.573l0.113,6.852c0.021,1.334,0.86,1.599,1.647,1.568   l0.516-0.02l1.224,6.954c0.778,1.469,3.362,2.713,4.681,4.195l-2.461,0.144c-0.557,1.321-1.379,3.192-2.216,3.826   c-0.834,0.251-1.669,0.497-2.502,0.748c-2.925,1.318-6.174,2.892-9.105,4.252c-2.668,1.239-5.864,1.663-6.828,4.744   c0,1.927-0.151,6.323-0.137,9.072H62.074z"/>
	<path fill="#ffffff" d="M57.073,47.697c0.026-0.004,0.053-0.01,0.078-0.017l0.704,4.316l0.686,3.635c0.676,1.275,2.713,2.369,4.1,3.369H61.62   l-0.973,0.535c-0.532,1.246-1.508,3.893-2.504,4.647c-0.769,0.231-1.538,0.53-2.308,0.762c0.873,0.443,1.735,0.907,2.573,1.325   c2.989,1.487,6.568,1.994,7.649,5.692c0,2.343,0.176,7.749,0.153,11.038h31.505c0.009-2.756-0.138-7.044-0.138-8.938   c-0.964-3.08-4.16-3.507-6.828-4.746c-2.931-1.359-6.181-2.931-9.104-4.251c-0.834-0.25-1.67-0.497-2.503-0.747   c-0.997-0.755-1.995-3.262-2.528-4.509C76.084,59.726,76,59.612,75,59.529C75,59.525,75,59,75,59h-0.965   c1.384-1,3.478-2.137,4.164-3.436l1.219-6.825l0.019,0.063l0.186-1.141c0.006,0.002,0.011,0.02,0.017,0.02   c1.131,0.182,2.374-1.696,2.777-4.205c0.404-2.508-0.185-4.686-1.315-4.867c-0.279-0.046-0.565,0.039-0.845,0.225   c0.183-2.23,0.186-4.111,0.034-5.697c0.031-0.29,0.053-0.601,0.062-0.938c0.033-1.295,1.474-5.42,0.127-6.477   c-0.255-0.201-0.902-0.024-1.391,0.011c-2.617,0.188-5.403-2.84-9.282-3.217c-4.84-0.471-9.649,2.178-10.062,5.106   c-0.275,0.001-0.604,0.053-0.995,0.165c-1.188,0.339-2.338,2.122-2.517,5.225c-0.196,3.421-0.032,5.048,0.335,5.829   c-0.021,0.01-0.043,0.02-0.064,0.03c-0.294-0.209-0.598-0.305-0.894-0.257c-1.13,0.182-1.719,2.362-1.314,4.872   C54.698,45.994,55.943,47.879,57.073,47.697z"/>
</g>
</svg>