<svg xmlns="http://www.w3.org/2000/svg" xmlns:xlink="http://www.w3.org/1999/xlink" version="1.1" x="0px" y="0px" width="100px" height="100px" viewBox="0 0 100 100" enable-background="new 0 0 100 100" xml:space="preserve">
<g id="Captions">
</g>
<g id="Your_Icon">
	<path fill="#ffffff" d="M54.566,56.172c0.001,0.006,0.002,0.01,0.003,0.014c0.013,0.057,0.02,0.115,0.04,0.172   c3.37,9.225,12.224,15.805,22.613,15.807c10.479-0.002,19.396-6.695,22.698-16.047c0.15-0.422,0.083-0.895-0.176-1.262   c-0.082-0.115-0.182-0.186-0.292-0.232L79.071,19.32c0.676-0.15,1.183-0.754,1.183-1.475c0-0.836-0.678-1.514-1.514-1.514H53.028   V9.816c0-1.67-1.354-3.023-3.024-3.023c-1.671,0-3.025,1.354-3.025,3.023v6.516H21.267c-0.836,0-1.513,0.678-1.513,1.514   c0,0.723,0.509,1.326,1.187,1.477L0.631,54.498c-0.146,0.096-0.274,0.215-0.377,0.361c-0.259,0.365-0.324,0.836-0.175,1.258   c3.304,9.352,12.22,16.045,22.7,16.047c10.479-0.002,19.396-6.695,22.699-16.047c0.148-0.422,0.084-0.893-0.176-1.258   c-0.099-0.139-0.221-0.256-0.359-0.35L24.648,19.357h22.33v60.238H18.706c-2.506,0-4.537,2.031-4.537,4.537H9.631   c-2.505,0-4.537,2.031-4.537,4.539c0,2.504,2.032,4.535,4.537,4.535h80.75c2.507,0,4.538-2.031,4.538-4.535   c0-2.508-2.031-4.539-4.538-4.539h-7.394c0-2.506-2.031-4.537-4.538-4.537H53.028V19.357h22.335L54.707,55.137   c-0.155,0.268-0.212,0.576-0.173,0.873C54.539,56.064,54.555,56.119,54.566,56.172z M41.617,54.275H3.951l18.833-32.619   L41.617,54.275z M77.229,21.656l18.931,32.789H58.298L77.229,21.656z"/>
</g>
</svg>