<svg xmlns="http://www.w3.org/2000/svg" xmlns:xlink="http://www.w3.org/1999/xlink" version="1.1" x="0px" y="0px" width="100px" height="100px" viewBox="0 0 100 100" enable-background="new 0 0 100 100" xml:space="preserve">
<g id="Captions">
	<rect x="-192" width="185" height="99"/>
	<rect y="-36" width="100" height="30"/>
	<text transform="matrix(1 0 0 1 66 -19.5)" fill="#ffffff" font-family="'Helvetica'" font-size="2.4">http://thenounproject.com</text>
	<text transform="matrix(1 0 0 1 7.166 -24.5)"><tspan x="0" y="0" fill="#ffffff" font-family="'Helvetica-Bold'" font-size="6.1578">The Noun Project</tspan><tspan x="1.12" y="4.8" fill="#ffffff" font-family="'Helvetica-Bold'" font-size="4">Icon Template</tspan></text>
	<text transform="matrix(1 0 0 1 -178.5 10.5)" fill="#FFFFFF" font-family="'Helvetica-Bold'" font-size="6.1578">Reminders</text>
	<line fill="#FFFFFF" stroke="#FFFFFF" stroke-miterlimit="10" x1="8" y1="-14.5" x2="18" y2="-14.5"/>
	<line fill="#FFFFFF" stroke="#FFFFFF" stroke-miterlimit="10" x1="-179" y1="16.5" x2="-162" y2="16.5"/>
	<g>
		<g>
			<g>
				<rect x="-170.802" y="31.318" fill="#ffffff" width="8.721" height="8.642"/>
				<path fill="#FFFFFF" d="M-164.455,42.312h4.747v-4.703h-4.747V42.312z M-159.266,42.749h-5.63V37.17h5.63V42.749      L-159.266,42.749z M-166.221,44.062h8.279v-8.203h-8.279V44.062L-166.221,44.062z M-157.5,44.5h-9.163v-9.079h9.163V44.5      L-157.5,44.5z"/>
				<polygon fill="#ffffff" points="-166.149,44.133 -166.292,43.991 -158.013,35.787 -157.871,35.929     "/>
			</g>
		</g>
	</g>
	<rect x="-179" y="58" fill="none" width="35" height="32.5"/>
	<text transform="matrix(1 0 0 1 -179 60.1572)"><tspan x="0" y="0" fill="#ffffff" font-family="'Helvetica-Bold'" font-size="3">Strokes</tspan><tspan x="0" y="5" fill="#ffffff" font-family="'Helvetica'" font-size="2.4">Try to keep strokes at 4px</tspan><tspan x="0" y="10" fill="#ffffff" font-family="'Helvetica'" font-size="2.4">Minimum stroke weight is 2px</tspan><tspan x="0" y="14.5" fill="#ffffff" font-family="'Helvetica'" font-size="2.4">For thicker strokes use even </tspan><tspan x="0" y="17.5" fill="#ffffff" font-family="'Helvetica'" font-size="2.4">numbers: 6px, 8px etc.</tspan><tspan x="0" y="22" fill="#ffffff" font-family="'Helvetica-Bold'" font-size="2.4">Remember to expand strokes </tspan><tspan x="0" y="25" fill="#ffffff" font-family="'Helvetica-Bold'" font-size="2.4">before saving as an SVG </tspan></text>
	<rect x="-136.5" y="58" fill="none" width="35" height="32.5"/>
	<text transform="matrix(1 0 0 1 -136.5 60.1572)"><tspan x="0" y="0" fill="#ffffff" font-family="'Helvetica-Bold'" font-size="3">Size</tspan><tspan x="0" y="5" fill="#ffffff" font-family="'Helvetica'" font-size="2.4">Cannot be wider or taller than </tspan><tspan x="0" y="8.5" fill="#ffffff" font-family="'Helvetica'" font-size="2.4">100px (artboard size)</tspan><tspan x="0" y="13.5" fill="#ffffff" font-family="'Helvetica'" font-size="2.4">Scale your icon to fill as much of </tspan><tspan x="0" y="16.5" fill="#ffffff" font-family="'Helvetica'" font-size="2.4">the artboard as possible</tspan></text>
	<rect x="-94" y="58" fill="none" width="35" height="32.5"/>
	<text transform="matrix(1 0 0 1 -94 60.1572)"><tspan x="0" y="0" fill="#ffffff" font-family="'Helvetica-Bold'" font-size="3">Ungroup</tspan><tspan x="0" y="5" fill="#ffffff" font-family="'Helvetica'" font-size="2.4">If your design has more than one </tspan><tspan x="0" y="8" fill="#ffffff" font-family="'Helvetica'" font-size="2.4">shape, make sure to ungroup</tspan></text>
	<rect x="-50" y="58" fill="none" width="35" height="32.5"/>
	<text transform="matrix(1 0 0 1 -50 60.1572)"><tspan x="0" y="0" fill="#ffffff" font-family="'Helvetica-Bold'" font-size="3">Save as</tspan><tspan x="0" y="5" fill="#ffffff" font-family="'Helvetica'" font-size="2.4">Save as .SVG and make sure </tspan><tspan x="0" y="8" fill="#ffffff" font-family="'Helvetica'" font-size="2.4">&#8220;Use Artboards&#8221; is checked</tspan></text>
	<text transform="matrix(1.0074 0 0 1 -125.542 30.5933)" fill="#ffffff" font-family="'Helvetica'" font-size="2.5731">100px</text>
	<text transform="matrix(1.0074 0 0 1 -41 39)" fill="#ffffff" font-family="'Helvetica-Bold'" font-size="5.1462">.SVG</text>
	<rect x="-126.514" y="34.815" fill="#ffffff" width="10.261" height="10.185"/>
	<rect x="-126.477" y="31.766" fill="#ffffff" width="0.522" height="2.337"/>
	<rect x="-116.812" y="31.766" fill="#ffffff" width="0.523" height="2.337"/>
	<rect x="-127" y="32.337" fill="#ffffff" width="11.233" height="0.572"/>
	<g>
		<rect x="-83.805" y="33.844" fill="#ffffff" width="10.305" height="10.156"/>
		<rect x="-76.809" y="28.707" fill="#ffffff" width="3.308" height="3.261"/>
	</g>
	<rect x="-178.5" y="22.5" fill="#ffffff" stroke="#FFFFFF" stroke-miterlimit="10" width="30" height="30"/>
	<rect x="-136.5" y="22.5" fill="#ffffff" stroke="#FFFFFF" stroke-miterlimit="10" width="30" height="30"/>
	<rect x="-93.5" y="22.5" fill="#ffffff" stroke="#FFFFFF" stroke-miterlimit="10" width="30" height="30"/>
	<rect x="-49.5" y="22.5" fill="#ffffff" stroke="#FFFFFF" stroke-miterlimit="10" width="30" height="30"/>
</g>
<g id="Your_Icon">
	<g>
		<path fill="#FFFFFF" d="M15.348,15.507L15.348,15.507c-1-0.198-1.65-1.17-1.452-2.171c0.253-1.28-4.207-3.748-9.009-4.986    C3.9,8.095,3.305,7.088,3.559,6.101c0.259-0.988,1.298-1.574,2.252-1.329c2.146,0.554,7.693,2.21,10.343,5.1    c3.017-2.244,8.183-2.456,11.205-1.855c1.001,0.199,1.649,1.171,1.45,2.171c-0.196,1.002-1.17,1.651-2.168,1.454    c-2.855-0.567-8.627-0.067-9.12,2.414C17.322,15.056,16.348,15.707,15.348,15.507z"/>
	</g>
	<path fill="#FFFFFF" d="M73.38,63.041c2.861-1.02,5.429-2.84,7.498-5.244c1.64,0.77,3.464,1.229,5.396,1.211   C97,58.904,98.75,50.445,99,46.279c0.234-3.91-1.773-7.415-4.555-9.752c2.779-2.333,4.551-5.834,4.551-9.753   c0-7.029-5.697-12.725-12.729-12.725c-0.256,0-0.506,0.021-0.767,0.037C82.975,5.876,76.294,0,68.421,0   C58.378,0,50.237,9.543,50.237,21.321c0,0.031,0.004,0.062,0.004,0.092C43.913,22.149,39,27.524,39,34.049   c0,5.301,3.238,9.837,7.844,11.752c-0.782,1.652-1.233,3.492-1.233,5.441c0,7.027,5.698,12.719,12.728,12.719   c1.572,0,3.073-0.295,4.466-0.816V94.03h10.562"/>
	<g>
		<rect x="32.996" y="73.167" fill="#FFFFFF" width="26.676" height="5.583"/>
	</g>
	<g>
		<rect x="18.331" y="87.167" fill="#FFFFFF" width="5.417" height="6.771"/>
		<rect x="10.828" y="83.875" fill="#FFFFFF" width="20.422" height="3.646"/>
	</g>
	<rect x="43.762" y="75.792" fill="#FFFFFF" width="6.238" height="16.166"/>
	<rect x="43.762" y="76.792" fill="#FFFFFF" width="6.238" height="16.166"/>
	<rect x="43.762" y="77.792" fill="#FFFFFF" width="6.238" height="16.166"/>
	<rect x="43.762" y="78.792" fill="#FFFFFF" width="6.238" height="16.166"/>
	<rect y="93.762" fill="#FFFFFF" width="100" height="6.238"/>
</g>
</svg>