<svg xmlns="http://www.w3.org/2000/svg" xmlns:xlink="http://www.w3.org/1999/xlink" version="1.1" x="0px" y="0px" width="100px" height="100px" viewBox="0 0 100 100" enable-background="new 0 0 100 100" xml:space="preserve">
<g id="Captions">
</g>
<g id="Your_Icon">
	<g>
		<path fill="#ffffff" d="M82.715,76.614C81.916,76.63,82,76.646,81,76.157v2.732v6.833C81,87.294,82.22,88,83.221,88h0.899    c1,0,0.88-0.706,0.88-2.277v-9.329C85,76.709,83.33,76.602,82.715,76.614z"/>
		<path fill="#ffffff" d="M69.005,61.46c6.286-0.093,11.438-5.678,11.517-11.987c0.007-0.489-0.021-0.973-0.076-1.454    c-0.008-0.068-0.026-0.135-0.034-0.205c-0.057-0.418-0.129-0.833-0.229-1.24c-0.006-0.026-0.017-0.052-0.023-0.078    c-0.446-1.767-1.3-3.411-2.498-4.794c-0.048-0.055-0.102-0.103-0.149-0.157c-0.245-0.272-0.494-0.542-0.764-0.791    c-0.331-0.306-0.68-0.595-1.049-0.864l-0.089-0.064l-1.039-0.757l0.857-1.1c0.686-0.877,1.047-1.926,1.047-3.033    c0-2.318-1.644-4.353-3.909-4.835l-1.007-0.214l-0.059-1.028c-0.297-5.155-4.018-9.559-9.046-10.71l-1.353-0.309l0.341-1.342    c0.113-0.438,0.163-0.868,0.168-1.281c0.019-1.439-0.662-2.8-1.668-3.831C58.939,10.357,56,9.779,56,9.762v0.014    c-3,0-5.267,2.402-5.303,5.336l0.155,2.281l-1.873-0.483c-6.662-1.291-9.786,2.78-9.835,6.695    c-0.019,1.521,0.447,2.652,1.334,3.902l0.934,1.26l-1.453,0.667c-5.955,2.815-9.802,8.876-9.802,15.438    c0,7.949,5.405,14.801,13.145,16.634l0.585,0.19l0.289,0.864c0.96,1.759,2.34,3.317,3.969,4.476    c0.571,0.406,1.172,0.705,1.799,1.002C51.304,68.684,52.777,69,54.295,69h0.149c1.566,0,3.09-0.32,4.493-0.974    c0.307-0.141,0.606-0.267,0.9-0.435c2.212-1.271,4.053-3.244,5.162-5.581l0.452-1.228C65.452,60.783,66.432,61.378,69.005,61.46z"/>
		<path fill="#ffffff" d="M54.295,71C53.128,71,52,71.631,51,71.304v13.099C51,86.886,52.125,88,53.705,88h0.573    C55.857,88,57,86.886,57,84.402V73.61v-2.074C56,71.715,55.356,71,54.444,71H54.295z"/>
		<path fill="#ffffff" d="M93.607,50.879l-0.92-0.456l0.589-0.872c0.561-0.79,0.851-1.865,0.84-2.829    C94.086,44.244,92.044,42,89.567,42H89.51c-0.555,0-1.103,0.347-1.63,0.559l-1.204,0.677l0.039-1.409    c-0.022-1.857-1.553-3.361-3.454-3.361l0,0c-0.911,0.011-1.764,0.382-2.4,1.035c-0.304,0.312-0.538,0.677-0.701,1.068    c1.988,2.561,3.102,5.76,3.061,9.051c-0.094,7.501-5.507,14.323-15.206,14.944c0.509,3.546,3.552,6.337,7.209,6.39    C75.26,70.954,75.295,71,75.331,71h0.095c0.451,0,0.919-0.105,1.391-0.201l0.654-0.159l0.287,0.371    C78.979,73.585,81.603,75,84.439,75h0.095c2.669,0,5.123-1.278,6.406-3.629l0.181-0.2l0.371-0.038    c4.899-1.16,8.321-5.463,8.321-10.495C99.813,56.483,97.378,52.662,93.607,50.879z"/>
		<path fill="#ffffff" d="M44,73.61c-1.242,0-2,1.006-2,2.248V79H9v-3.142c0-1.242-0.758-2.248-2-2.248c-1.241,0-2,1.006-2,2.248V88    h4v-6h33v6h4V75.858C46,74.616,45.242,73.61,44,73.61z"/>
		<path fill="#ffffff" d="M40,66.799C40,65.806,39.195,65,38.201,65H12.799C11.805,65,11,65.806,11,66.799v1.402    C11,69.194,11.805,70,12.799,70h25.402C39.195,70,40,69.194,40,68.201V66.799z"/>
		<path fill="#ffffff" d="M40,72.798C40,71.805,39.195,71,38.201,71H12.799C11.805,71,11,71.805,11,72.798v1.404    C11,75.195,11.805,76,12.799,76h25.402C39.195,76,40,75.195,40,74.202V72.798z"/>
		<circle fill="#ffffff" cx="16.188" cy="30.661" r="6.584"/>
		<path fill="#ffffff" d="M10.445,21.271c0.273,0.666,1.035,0.983,1.701,0.71c0.666-0.274,0.984-1.035,0.71-1.701l-1.486-3.617    c-0.273-0.666-1.036-0.984-1.701-0.71c-0.666,0.274-0.984,1.036-0.711,1.702L10.445,21.271z"/>
		<path fill="#ffffff" d="M21.56,44.89c0.666-0.274,0.984-1.036,0.71-1.701l-1.486-3.618c-0.273-0.666-1.036-0.983-1.701-0.709    c-0.666,0.274-0.984,1.036-0.711,1.701l1.486,3.617C20.132,44.845,20.894,45.162,21.56,44.89z"/>
		<path fill="#ffffff" d="M6.566,29.248c0.092-0.715-0.411-1.368-1.125-1.46l-3.878-0.503c-0.714-0.092-1.367,0.411-1.46,1.126    c-0.093,0.713,0.411,1.368,1.125,1.459l3.878,0.503C5.819,30.465,6.474,29.961,6.566,29.248z"/>
		<path fill="#ffffff" d="M24.663,31.591c-0.093,0.713,0.411,1.367,1.125,1.46l3.877,0.502c0.714,0.092,1.369-0.411,1.461-1.125    c0.093-0.714-0.412-1.368-1.125-1.46l-3.878-0.502C25.409,30.374,24.755,30.877,24.663,31.591z"/>
		<path fill="#ffffff" d="M8.377,42.865l2.264-3.188c0.417-0.587,0.278-1.4-0.309-1.817c-0.587-0.417-1.4-0.278-1.817,0.308    l-2.264,3.189c-0.416,0.585-0.278,1.4,0.31,1.816C7.146,43.59,7.96,43.453,8.377,42.865z"/>
		<path fill="#ffffff" d="M20.896,22.982c0.586,0.416,1.399,0.278,1.816-0.309l2.264-3.188c0.417-0.586,0.278-1.401-0.308-1.817    c-0.588-0.417-1.401-0.279-1.818,0.309l-2.263,3.188C20.171,21.751,20.308,22.564,20.896,22.982z"/>
	</g>
</g>
</svg>