<?xml version="1.0" encoding="utf-8"?>
<!-- Generator: Adobe Illustrator 16.0.0, SVG Export Plug-In . SVG Version: 6.00 Build 0)  -->
<!DOCTYPE svg PUBLIC "-//W3C//DTD SVG 1.1//EN" "http://www.w3.org/Graphics/SVG/1.1/DTD/svg11.dtd">
<svg version="1.1" id="Layer_1" xmlns="http://www.w3.org/2000/svg" xmlns:xlink="http://www.w3.org/1999/xlink" x="0px" y="0px"
	 width="65.236px" height="100px" viewBox="0 0 65.236 100" enable-background="new 0 0 65.236 100" xml:space="preserve">
<g id="Layer_2">
	<g>
		<path fill="#ffffff" d="M24.036,16.299v-2.888h6.255c-1.095-0.971-1.814-2.653-1.814-4.568c0-3.012,1.78-5.452,3.978-5.452
			c2.198,0,3.983,2.44,3.983,5.452c0,1.916-0.725,3.597-1.813,4.568h6.214v2.888h7.896c0.948-1.426,1.484-2.998,1.484-4.655
			C50.219,5.215,42.268,0,32.454,0c-9.809,0-17.76,5.215-17.76,11.644c0,1.658,0.531,3.231,1.485,4.655H24.036z"/>
		<path fill="#ffffff"  d="M15.604,19.959v3.774h4.462c0.122,6.712,5.592,12.12,12.334,12.12c6.741,0,12.213-5.408,12.339-12.12
			h3.882v-3.774H15.604z"/>
	</g>
	<rect fill="#ffffff" x="14.295" y="92.045"  width="36.783" height="7.955"/>
	<path fill="#ffffff"  d="M50.885,38.493L21.606,83.95h29.477l0.008-26.781h3.385v36.282c0,8.271,10.786,8.271,10.761,0V56.29
		C65.235,48.078,59.758,40.038,50.885,38.493z"/>
	<path fill="#ffffff"  d="M41.462,38.176l-24.521,0.01C7.2,38.186,0,46.129,0,56.038V93.45c0,8.21,10.846,8.21,10.846,0V57.168h3.456
		l-0.005,23.183L41.462,38.176z M21.833,44.086c2.171,0,3.934,2.35,3.934,5.246c0,2.897-1.761,5.243-3.934,5.243
		c-2.175,0-3.936-2.346-3.936-5.243C17.896,46.434,19.657,44.086,21.833,44.086z"/>
</g>
</svg>
