<svg xmlns="http://www.w3.org/2000/svg" xmlns:xlink="http://www.w3.org/1999/xlink" version="1.1" id="Layer_1" x="0px" y="0px" width="100px" height="100px" viewBox="0 0 100 100" enable-background="new 0 0 100 100" xml:space="preserve">
<path fill="#ffffff" d="M95.84,22.245c-4.149,0-8.301,4.15-16.6,4.15c-8.301,0-12.45-4.15-16.602-4.15  c-1.955,0-4.149,2.075-4.149,4.15v29.05c0,9.197,4.149,20.751,20.751,20.751c16.6,0,20.749-11.554,20.749-20.751v-29.05  C99.989,24.32,97.797,22.245,95.84,22.245z M64.715,41.958c0-2.866,2.322-5.188,5.188-5.188c2.864,0,5.187,2.323,5.187,5.188  s-2.322,5.188-5.187,5.188C67.037,47.146,64.715,44.823,64.715,41.958z M79.24,67.896c-10.376,0-12.45-8.299-12.45-8.299h24.9  C91.69,59.597,89.615,67.896,79.24,67.896z M88.578,47.146c-2.865,0-5.188-2.323-5.188-5.188c0-2.866,2.323-5.188,5.188-5.188  c2.863,0,5.187,2.323,5.187,5.188S91.441,47.146,88.578,47.146z"/>
<path fill="#ffffff" d="M46.94,55.282c1.025,0.106,2.106,0.163,3.248,0.163c1.489,0,2.849-0.07,4.152-0.257V42.998H37.738  c0,0,2.075-8.3,12.45-8.3c2.077,0,2.891,0.307,4.152,0.778v-9.078c0-3.804,1.516-6.983,4.149-8.3c4.149-2.075,5.824-1.237,8.301,0  c4.149,2.075,4.149,2.075,4.149,2.075V5.647c0-2.075-2.194-4.15-4.149-4.15c-4.151,0-8.301,4.15-16.602,4.15  c-8.299,0-12.45-4.15-16.599-4.15V1.495c-1.957,0-4.149,2.075-4.149,4.15v29.05c0,3.69,0.692,7.75,2.566,11.3  c0.735,0.308,1.466,0.634,2.188,1.001C39.217,49.557,43.465,52.331,46.94,55.282z M40.851,16.02c2.865,0,5.188,2.323,5.188,5.188  c0,2.865-2.323,5.188-5.188,5.188c-2.865,0-5.186-2.323-5.186-5.188C35.665,18.343,37.986,16.02,40.851,16.02z"/>
<path fill="#ffffff" d="M20.257,46.6c-9.116,0-16.596,4.567-18.595,8.49c-2.872,5.641-2.206,11.308,3.433,14.179  c5.64,2.872,7.743,5.716,5.588,9.949c-2.871,5.638-0.795,12.021,4.845,14.894c6.583,3.352,12.542,4.783,17.707,4.783  c9.218,0,15.912-4.554,19.132-10.878c8.616-16.921-2.612-29.74-19.529-38.357C28.546,47.475,24.245,46.6,20.257,46.6z   M13.993,62.256c-0.698,1.374-2.087,2.163-3.529,2.163c-0.603,0-1.216-0.138-1.791-0.432c-1.947-0.992-2.722-3.371-1.73-5.318  c0.698-1.373,2.085-2.161,3.526-2.161c0.604,0,1.217,0.138,1.792,0.432C14.209,57.932,14.985,60.311,13.993,62.256z M24.784,86.396  c-0.838,1.646-2.507,2.594-4.235,2.594c-0.726,0-1.46-0.166-2.149-0.518c-2.336-1.188-3.264-4.047-2.076-6.385  c0.838-1.646,2.506-2.593,4.233-2.593c0.726,0,1.461,0.165,2.151,0.517C25.043,81.202,25.973,84.062,24.784,86.396z M28.171,58.822  c-0.699,1.374-2.088,2.163-3.529,2.163c-0.605,0-1.218-0.138-1.792-0.432c-1.946-0.992-2.721-3.371-1.729-5.32  c0.698-1.369,2.086-2.159,3.527-2.159c0.603,0,1.217,0.138,1.792,0.432C28.387,54.496,29.161,56.879,28.171,58.822z M40.807,72.362  c0.7-1.374,2.087-2.161,3.528-2.163c0.604,0,1.218,0.14,1.793,0.432c1.946,0.992,2.72,3.375,1.73,5.32  c-0.699,1.371-2.087,2.161-3.528,2.161c-0.604,0-1.217-0.138-1.792-0.432C40.59,76.688,39.815,74.31,40.807,72.362z M35.927,58.818  c0.604,0,1.218,0.139,1.793,0.433c1.946,0.988,2.72,3.371,1.728,5.316c-0.698,1.373-2.086,2.163-3.527,2.163  c-0.603,0-1.216-0.141-1.791-0.432c-1.947-0.992-2.721-3.374-1.73-5.321C33.099,59.606,34.486,58.818,35.927,58.818z"/>
</svg>