<svg xmlns="http://www.w3.org/2000/svg" width="829" height="93" viewBox="0 0 829 93" xmlns:xlink="http://www.w3.org/1999/xlink">
  <defs>
    <polygon id="a" points=".252 72 58.131 72 58.131 .568 .252 .568 .252 72"/>
  </defs>
  <g fill="none" fill-rule="evenodd">
    <path fill="#00ADEF" d="M95.0625 62.9346C103.3335 62.9346 110.1095 56.5546 110.1095 47.0866 110.1095 37.7186 103.3335 31.2426 95.0625 31.2426 86.7895 31.2426 79.9145 37.7186 79.9145 47.0866 79.9145 56.5546 86.7895 62.9346 95.0625 62.9346L95.0625 62.9346zM94.9625 20.4786C110.5095 20.4786 122.9665 31.5406 122.9665 47.0866 122.9665 62.7346 110.5095 73.6966 95.0625 73.6966 79.5155 73.6966 67.0565 62.7346 67.0565 47.0866 67.0565 31.5406 79.5155 20.4786 94.9625 20.4786L94.9625 20.4786zM197.4702 64.2295C204.3472 64.2295 209.2302 56.8545 209.2302 50.4765L209.2302 49.3165C209.2302 49.0215 208.9912 48.7815 208.6962 48.7815L207.1362 48.7815C202.0552 48.7815 190.0952 49.5805 190.0952 57.2525 190.0952 61.1395 192.7862 64.2295 197.4702 64.2295M205.9402 41.1085L208.5962 41.1085C208.8922 41.1085 209.1302 40.8695 209.1302 40.5745L209.1302 39.4145C209.1302 32.9355 205.0442 30.6435 199.7622 30.6435 195.8752 30.6435 192.4872 31.8395 189.7962 33.0355 188.3962 33.6485 187.0742 34.4135 185.8962 35.1975 185.6332 35.3735 185.2822 35.2865 185.1332 35.0055L180.9482 27.1675C180.8212 26.9315 180.8842 26.6375 181.1012 26.4805 182.6012 25.3925 184.2772 24.3955 186.2092 23.5675 189.6962 21.9735 194.7792 20.4785 200.8582 20.4785 214.5132 20.4785 221.7882 27.4555 221.7882 40.5095L221.7882 62.5005C221.7882 62.7935 222.0262 63.0335 222.3222 63.0335L227.2062 63.0335C227.5012 63.0335 227.7402 63.2725 227.7402 63.5675L227.7402 71.9655C227.7402 72.2615 227.5012 72.5005 227.2062 72.5005L217.0922 72.4885C213.4172 72.4675 211.9322 68.9295 211.4822 66.6745 211.4422 66.4775 211.1952 66.4365 211.0842 66.6015 209.5212 68.9515 203.6932 73.6775 194.1802 73.6965 185.4112 73.7135 177.3392 68.6145 177.3392 58.2495 177.3392 42.7025 197.7682 41.1085 205.9402 41.1085M236.6187 63.0332L242.2777 63.0332C242.5727 63.0332 242.8107 62.7952 242.8107 62.5002L242.8107 31.6762C242.8107 31.3822 242.5727 31.1422 242.2777 31.1422L236.6497 31.1422C236.3537 31.1422 236.1157 30.9042 236.1157 30.6082L236.1157 22.2082C236.1157 21.9142 236.3537 21.6752 236.6497 21.6752L248.1937 21.6752C252.6777 21.6752 254.9697 23.7682 254.9697 27.8532L254.9697 30.8432 254.9697 34.0332C257.3617 26.7572 263.2417 20.9762 271.1157 20.9762 271.6257 20.9762 272.4087 21.0262 272.9437 21.0952 273.2107 21.1282 273.4067 21.3562 273.4067 21.6242L273.4067 33.0352C273.4067 33.3482 273.1397 33.5972 272.8267 33.5662 272.0787 33.4962 271.0037 33.4342 270.3187 33.4342 260.0527 33.4342 255.4687 42.4032 255.4687 51.9702L255.4687 62.5002C255.4687 62.7952 255.7067 63.0332 256.0027 63.0332L261.4737 63.0332C261.7687 63.0332 262.0077 63.2722 262.0077 63.5672L262.0077 71.9682C262.0077 72.2632 261.7687 72.5012 261.4737 72.5012L236.6187 72.5012C236.3237 72.5012 236.0837 72.2632 236.0837 71.9682L236.0837 63.5672C236.0837 63.2722 236.3237 63.0332 236.6187 63.0332M286.1109 31.1426L281.5069 31.1426C280.9299 31.1426 280.4609 30.6736 280.4609 30.0946L280.4609 22.7216C280.4609 22.1436 280.9299 21.6746 281.5069 21.6746L298.7669 21.6746C299.3449 21.6746 299.8139 22.1436 299.8139 22.7216L299.8139 61.9876C299.8139 62.5646 300.2829 63.0336 300.8599 63.0336L305.3349 63.0336C305.9129 63.0336 306.3819 63.5026 306.3819 64.0806L306.3819 71.4556C306.3819 72.0326 305.9129 72.5006 305.3349 72.5006L292.7609 72.5006C289.6899 72.5006 287.1279 69.4286 287.1249 66.3576L287.1579 32.1886C287.1569 31.6096 286.6879 31.1426 286.1109 31.1426M292.9863 14.9541C297.1093 14.9541 300.4643 11.5991 300.4643 7.4761 300.4643 3.3531 297.1093.0001 292.9863.0001 288.8643.0001 285.5103 3.3531 285.5103 7.4761 285.5103 11.5991 288.8643 14.9541 292.9863 14.9541M153.9068 42.0449C147.6078 39.8739 143.1508 38.0659 143.1688 34.5399 143.1898 30.3909 148.8988 30.0679 150.6478 30.0679 150.8758 30.0679 151.0978 30.0729 151.3148 30.0809 153.0178 30.1519 154.4038 30.4449 155.6698 31.0249 157.1478 31.7049 158.2988 33.0069 159.1658 34.3549 159.7618 35.2809 160.1258 36.0329 160.6608 37.0009 160.8048 37.2619 161.1368 37.3529 161.3948 37.2029L170.2168 32.1289C170.4718 31.9819 170.5608 31.6529 170.4128 31.3989L169.6438 30.0359C168.1708 27.3799 166.5878 25.5249 164.3048 23.7749 159.8008 20.3229 154.3408 19.5979 150.5558 19.5979 148.8178 19.5979 147.0648 19.7529 145.3458 20.0559 141.6808 20.7019 135.0958 22.6689 132.1808 28.5659 131.3018 30.3449 130.8468 32.3799 130.8258 34.6169 130.7358 44.8839 139.9848 48.3379 147.4358 51.1189L148.5608 51.5189C155.0528 53.8209 158.4398 55.1859 158.4398 58.7019 158.4398 59.9519 157.8128 61.0899 156.6718 61.9019 155.2968 62.8829 153.4548 63.4669 151.4858 63.5419 151.1348 63.5549 150.7868 63.5639 150.4438 63.5639 144.3778 63.5639 140.5538 60.4809 137.6188 55.5739 137.4698 55.3229 137.1508 55.2359 136.8978 55.3809L128.0788 60.4479C127.8218 60.5959 127.7338 60.9269 127.8818 61.1839 130.1338 65.0639 132.3258 68.2399 136.2468 70.6639 140.1428 73.0709 144.7298 74.0919 149.2778 74.0979L149.3368 74.0979C151.9668 74.0979 154.2758 73.8829 156.3958 73.4389 158.6008 72.9799 160.6238 72.2799 162.4078 71.3649 164.2558 70.4169 165.8358 69.2379 167.1088 67.8609 168.4208 66.4369 169.4348 64.7339 170.0378 62.9409 170.5318 61.4649 170.7828 59.8769 170.7828 58.2169 170.7828 47.6669 160.6188 44.2809 153.9068 42.0449M64.8853 61.751C64.8853 61.451 64.6363 61.227 64.3363 61.232 59.1453 61.333 54.6813 58.73 51.3843 54.788 48.2093 50.993 46.6283 46.269 43.6933 42.364 43.4223 42.002 43.5223 41.541 43.8593 41.28 51.3023 38.211 55.8193 31.565 55.8193 22.172 55.8193 12.207 50.7373 5.928 42.7633 3.237 38.7783 2.041 34.4923 1.742 29.3093 1.742L.5343 1.742C.2393 1.742.0003 1.981.0003 2.277L.0003 11.076C.0003 11.371.2393 11.608.5343 11.608L6.0523 11.608C6.3483 11.608 6.5873 11.848 6.5873 12.143L6.5873 62.2C6.5873 62.495 6.3483 62.734 6.0523 62.734L.5343 62.734C.2393 62.734.0003 62.974.0003 63.27L.0003 71.966C.0003 72.262.2393 72.501.5343 72.501L25.3963 72.501C25.6913 72.501 25.9303 72.262 25.9303 71.966L25.9303 63.27C25.9303 62.974 25.6913 62.734 25.3963 62.734L20.1773 62.734C19.8823 62.734 19.6433 62.495 19.6433 62.2L19.6433 12.74C19.6433 12.445 19.8823 12.207 20.1773 12.207L29.2113 12.207C32.5993 12.207 35.2903 12.606 37.1833 13.502 41.0703 15.097 42.7633 18.584 42.7633 23.269 42.7633 30.844 38.2803 34.93 31.4033 34.93L26.3703 34.93C26.0753 34.93 25.8373 35.168 25.8383 35.464L25.8573 44.237C25.8573 44.531 26.0953 44.77 26.3913 44.77L27.4553 44.77C31.4413 44.75 33.2263 49.312 34.8993 52.215 35.3823 53.051 35.8633 53.888 36.3463 54.725 38.8583 59.079 41.4413 62.429 44.4753 65.261 48.0073 68.56 51.7953 70.907 55.7323 72.238 58.4853 73.169 61.4743 73.627 64.3873 73.502 64.6733 73.49 64.8993 73.25 64.8993 72.963 64.8973 70.924 64.8873 63.812 64.8853 61.751M339.6021 62.9346C347.8741 62.9346 354.6511 56.5546 354.6511 47.0866 354.6511 37.7186 347.8741 31.2426 339.6021 31.2426 331.3311 31.2426 324.4541 37.7186 324.4541 47.0866 324.4541 56.5546 331.3311 62.9346 339.6021 62.9346M339.5031 20.4786C355.0501 20.4786 367.5071 31.5406 367.5071 47.0866 367.5071 62.7346 355.0501 73.6966 339.6021 73.6966 324.0551 73.6966 311.5981 62.7346 311.5981 47.0866 311.5981 31.5406 324.0551 20.4786 339.5031 20.4786"/>
    <g transform="translate(380 20.122)">
      <mask id="b" fill="white">
        <use xlink:href="#a"/>
      </mask>
      <path fill="#F7931D" d="M32.8028,42.8135 C39.7288,42.8135 45.4668,37.1735 45.4668,27.1815 C45.4668,17.5845 40.4208,11.3515 32.9018,11.3515 C26.2728,11.3515 20.2378,16.1995 20.2378,27.2805 C20.2378,35.0965 24.4918,42.8135 32.8028,42.8135 L32.8028,42.8135 Z M8.0688,62.6015 L8.0688,13.3305 C8.0688,11.8455 7.3758,11.1535 5.8918,11.1535 L0.2518,11.1535 L0.2518,1.7545 L13.2128,1.7545 C17.8638,1.7545 19.4468,3.8325 19.4468,6.5035 L19.4468,6.8005 L19.4468,8.3835 C19.4468,8.6795 19.4468,8.8775 19.3468,9.0765 L19.5448,9.0765 C20.4358,7.4935 21.7218,6.1075 23.2058,4.8215 C25.8768,2.5455 29.8348,0.5675 35.7708,0.5675 C49.4238,0.5675 58.1308,11.3515 58.1308,26.9835 C58.1308,43.0115 48.3358,53.4005 35.0778,53.4005 C30.0318,53.4005 26.4708,51.7175 24.0958,49.8375 C22.7108,48.7505 21.5238,47.5625 20.5338,46.2765 L20.3368,46.2765 L20.5338,47.4635 C20.6328,48.2555 20.6328,49.3435 20.6328,50.6295 L20.6328,62.6015 L27.9548,62.6015 L27.9548,72.0005 L0.7468,72.0005 L0.7468,62.6015 L8.0688,62.6015 Z" mask="url(#b)"/>
    </g>
    <path fill="#F7931D" d="M464.4463 64.1231C471.2723 64.1231 476.1213 56.8021 476.1213 50.4701L476.1213 48.7881 474.0433 48.7881C468.9973 48.7881 457.1253 49.5791 457.1253 57.1971 457.1253 61.0561 459.7963 64.1231 464.4463 64.1231M472.8553 41.1701L476.0213 41.1701 476.0213 39.4871C476.0213 33.0571 471.9663 30.7811 466.7213 30.7811 462.8633 30.7811 459.4993 31.9681 456.8283 33.1551 455.2453 33.8481 453.7603 34.7381 452.4743 35.6291L447.8243 26.9221C449.4073 25.7351 451.1883 24.6471 453.2663 23.7561 456.7293 22.1731 461.7743 20.6891 467.8093 20.6891 481.3643 20.6891 488.5873 27.6151 488.5873 40.5761L488.5873 60.7591C488.5873 62.2431 489.2793 62.9361 490.7633 62.9361L495.3143 62.9361 495.3143 72.3351 483.4423 72.3351C478.7923 72.3351 477.0113 69.8611 477.0113 66.9921L477.0113 66.3981C477.0113 65.6071 477.1103 65.0141 477.2093 64.5191 477.3073 64.2221 477.3073 64.0241 477.3073 63.8261L477.1103 63.8261C476.2193 65.6071 475.0323 67.1901 473.5493 68.6741 470.8773 71.1471 467.1173 73.5221 461.1813 73.5221 452.4743 73.5221 444.4613 68.4771 444.4613 58.1861 444.4613 42.7531 464.7433 41.1701 472.8553 41.1701M502.1377 62.9356L509.4597 62.9356 509.4597 33.4526C509.4597 31.9676 508.7667 31.2756 507.2837 31.2756L501.6437 31.2756 501.6437 21.8766 514.8017 21.8766C519.2537 21.8766 521.5307 23.9546 521.5307 28.0106L521.5307 30.9786C521.5307 31.8696 521.5307 32.5616 521.4307 33.2546 521.3317 33.5516 521.3317 33.8476 521.3317 34.1446L521.5307 34.1446C523.9047 26.9226 529.7417 21.1846 537.5577 21.1846 538.2497 21.1846 538.7447 21.1846 539.1407 21.2836 539.4377 21.3816 539.6357 21.3816 539.8327 21.3816L539.8327 33.7486C539.5357 33.7486 539.2407 33.7486 538.9437 33.6506 538.2497 33.5516 537.6577 33.5516 536.7667 33.5516 526.5757 33.5516 522.0247 42.4566 522.0247 51.9546L522.0247 62.9356 529.2467 62.9356 529.2467 72.3346 502.1377 72.3346 502.1377 62.9356zM551.3086 31.2754L543.5906 31.2754 543.5906 21.8764 551.7046 21.8764 551.7046 8.1244 563.8726 8.1244 563.8726 21.8764 575.3506 21.8764 575.3506 31.2754 563.8726 31.2754 563.8726 52.5474C563.8726 61.2544 570.4036 62.3414 573.9646 62.3414 574.6576 62.3414 575.2506 62.2434 575.6476 62.2434L576.2406 62.2434 576.2406 72.5334 575.1526 72.7304C574.4596 72.8304 573.5696 72.8304 572.3816 72.8304 565.2586 72.8304 551.3086 70.7524 551.3086 53.8344L551.3086 31.2754zM591.08 13.2691L603.744 13.2691 603.744 2.0891 591.08 2.0891 591.08 13.2691zM583.857 62.9351L591.179 62.9351 591.179 31.2751 583.363 31.2751 583.363 21.8761 603.744 21.8761 603.744 62.9351 610.967 62.9351 610.967 72.3351 583.857 72.3351 583.857 62.9351zM644.4062 20.6895C652.8162 20.6895 665.0852 23.8555 665.0852 32.7595L665.0852 39.6855 654.2012 39.6855 654.2012 36.3215C654.2012 32.8585 649.0562 31.3755 644.8022 31.3755 635.6002 31.3755 629.9622 37.7075 629.9622 46.9085 629.9622 57.2955 637.1832 62.9355 645.7922 62.9355 652.9152 62.9355 658.7532 58.9785 661.5222 56.8015L665.9742 65.7065C662.5112 68.9705 654.7952 73.5225 645.0982 73.5225 630.3572 73.5225 617.2982 63.4305 617.2982 47.2055 617.2982 32.1665 628.8732 20.6895 644.4062 20.6895M680.912 13.2691L693.576 13.2691 693.576 2.0891 680.912 2.0891 680.912 13.2691zM673.689 62.9351L681.011 62.9351 681.011 31.2751 673.195 31.2751 673.195 21.8761 693.576 21.8761 693.576 62.9351 700.799 62.9351 700.799 72.3351 673.689 72.3351 673.689 62.9351zM739.1855 62.9356C746.1115 62.9356 751.8495 57.2956 751.8495 47.3036 751.8495 37.7066 746.8035 31.4736 739.2845 31.4736 732.6555 31.4736 726.6205 36.3216 726.6205 47.4026 726.6205 55.2186 730.8745 62.9356 739.1855 62.9356L739.1855 62.9356zM714.4515 82.7236L714.4515 33.4526C714.4515 31.9676 713.7585 31.2756 712.2745 31.2756L706.6345 31.2756 706.6345 21.8766 719.5955 21.8766C724.2465 21.8766 725.8295 23.9546 725.8295 26.6256L725.8295 26.9226 725.8295 28.5056C725.8295 28.8016 725.8295 28.9996 725.7295 29.1986L725.9275 29.1986C726.8185 27.6156 728.1045 26.2296 729.5885 24.9436 732.2595 22.6676 736.2175 20.6896 742.1535 20.6896 755.8065 20.6896 764.5135 31.4736 764.5135 47.1056 764.5135 63.1336 754.7185 73.5226 741.4605 73.5226 736.4145 73.5226 732.8535 71.8396 730.4785 69.9596 729.0935 68.8726 727.9065 67.6846 726.9165 66.3986L726.7195 66.3986 726.9165 67.5856C727.0155 68.3776 727.0155 69.4656 727.0155 70.7516L727.0155 82.7236 734.3375 82.7236 734.3375 92.1226 707.1295 92.1226 707.1295 82.7236 714.4515 82.7236zM790.8291 64.1231C797.6551 64.1231 802.5041 56.8021 802.5041 50.4701L802.5041 48.7881 800.4261 48.7881C795.3801 48.7881 783.5081 49.5791 783.5081 57.1971 783.5081 61.0561 786.1791 64.1231 790.8291 64.1231M799.2381 41.1701L802.4041 41.1701 802.4041 39.4871C802.4041 33.0571 798.3491 30.7811 793.1041 30.7811 789.2461 30.7811 785.8821 31.9681 783.2111 33.1551 781.6281 33.8481 780.1431 34.7381 778.8571 35.6291L774.2071 26.9221C775.7901 25.7351 777.5711 24.6471 779.6491 23.7561 783.1121 22.1731 788.1571 20.6891 794.1921 20.6891 807.7471 20.6891 814.9701 27.6151 814.9701 40.5761L814.9701 60.7591C814.9701 62.2431 815.6621 62.9361 817.1461 62.9361L821.6971 62.9361 821.6971 72.3351 809.8251 72.3351C805.1751 72.3351 803.3941 69.8611 803.3941 66.9921L803.3941 66.3981C803.3941 65.6071 803.4931 65.0141 803.5921 64.5191 803.6901 64.2221 803.6901 64.0241 803.6901 63.8261L803.4931 63.8261C802.6021 65.6071 801.4151 67.1901 799.9321 68.6741 797.2601 71.1471 793.5001 73.5221 787.5641 73.5221 778.8571 73.5221 770.8441 68.4771 770.8441 58.1861 770.8441 42.7531 791.1261 41.1701 799.2381 41.1701"/>
  </g>
</svg>
